<?xml version="1.0" encoding="utf-8"?>
<!-- Generator: Adobe Illustrator 27.2.0, SVG Export Plug-In . SVG Version: 6.00 Build 0)  -->
<svg version="1.1" id="Calque_1" xmlns="http://www.w3.org/2000/svg" xmlns:xlink="http://www.w3.org/1999/xlink" x="0px" y="0px"
	 viewBox="0 0 512 512" enable-background="new 0 0 512 512" xml:space="preserve">
<path fill="none" stroke="#1D1D1B" stroke-miterlimit="10" d="M419.86,121.19c-22.6,0-42.03,30.87-50.61,75.07
	c-8.37-81.49-33.41-140.64-63.01-140.64c-20.12,0-38.14,27.36-50.24,70.48c-12.1-43.13-30.12-70.48-50.24-70.48
	c-29.59,0-54.64,59.15-63.01,140.64c-8.58-44.2-28-75.07-50.61-75.07c-30.54,0-55.3,56.33-55.3,125.82s24.76,125.82,55.3,125.82
	c21.66,0,40.4-28.34,49.47-69.59c6.99,87.86,33.05,153.14,64.14,153.14c20.12,0,38.14-27.36,50.24-70.48
	c12.1,43.13,30.12,70.48,50.24,70.48c31.09,0,57.15-65.27,64.14-153.14c9.08,41.25,27.82,69.59,49.47,69.59
	c30.54,0,55.3-56.33,55.3-125.82S450.4,121.19,419.86,121.19z"/>
<g display="none">
	<g display="inline">
		<ellipse fill="#1D1D1B" cx="122.86" cy="463.69" rx="42.6" ry="74.85"/>
		<ellipse fill="#1D1D1B" cx="210.38" cy="469.04" rx="50.83" ry="119.21"/>
	</g>
	<g display="inline">
		<ellipse fill="#1D1D1B" cx="375.31" cy="463.69" rx="42.6" ry="74.85"/>
		<ellipse fill="#1D1D1B" cx="287.79" cy="469.04" rx="50.83" ry="119.21"/>
	</g>
</g>
</svg>
