<?xml version="1.0" encoding="utf-8"?>
<!-- Generator: Adobe Illustrator 27.2.0, SVG Export Plug-In . SVG Version: 6.00 Build 0)  -->
<svg version="1.1" id="Calque_1" xmlns="http://www.w3.org/2000/svg" xmlns:xlink="http://www.w3.org/1999/xlink" x="0px" y="0px"
	 viewBox="0 0 512 512" enable-background="new 0 0 512 512" xml:space="preserve">
<path fill="none" stroke="#1D1D1B" stroke-miterlimit="10" d="M441.45,138.17c-25.58,0-47.57,26.98-57.28,65.62
	c-9.47-71.23-37.82-122.93-71.31-122.93c-22.77,0-43.16,23.91-56.86,61.61c-13.7-37.69-34.09-61.61-56.86-61.61
	c-33.49,0-61.84,51.7-71.31,122.93c-9.71-38.64-31.69-65.62-57.28-65.62c-34.57,0-62.59,49.24-62.59,109.97
	s28.02,109.97,62.59,109.97c24.51,0,45.72-24.77,55.99-60.83c7.92,76.8,37.41,133.85,72.59,133.85c22.77,0,43.16-23.91,56.86-61.61
	c13.7,37.69,34.09,61.61,56.86,61.61c35.18,0,64.68-57.05,72.59-133.85c10.27,36.06,31.48,60.83,55.99,60.83
	c34.57,0,62.59-49.24,62.59-109.97S476.02,138.17,441.45,138.17z"/>
<g display="none">
	<g display="inline">
		<ellipse fill="#1D1D1B" cx="122.86" cy="463.69" rx="42.6" ry="74.85"/>
		<ellipse fill="#1D1D1B" cx="210.38" cy="469.04" rx="50.83" ry="119.21"/>
	</g>
	<g display="inline">
		<ellipse fill="#1D1D1B" cx="375.31" cy="463.69" rx="42.6" ry="74.85"/>
		<ellipse fill="#1D1D1B" cx="287.79" cy="469.04" rx="50.83" ry="119.21"/>
	</g>
</g>
</svg>
